<svg width="400" height="400" viewBox="0 0 400 400" fill="none" xmlns="http://www.w3.org/2000/svg">
<path d="M279.82 145.99H261.68V187.04H279.82C293.19 187.04 301.54 179.16 301.54 166.52C301.54 153.88 293.19 145.99 279.82 145.99Z" fill="#0E1C2D"/>
<path d="M199.69 0C89.4 0 0 89.4 0 199.69C0 309.98 89.4 399.38 199.69 399.38C309.98 399.38 399.38 309.98 399.38 199.69C399.38 89.4 309.98 0 199.69 0ZM94.59 111.87L106.49 131.72L82.47 171.79L46.55 111.87H94.6H94.59ZM94.59 287.51H46.54L82.46 227.59L106.48 267.66L94.58 287.51H94.59ZM204.65 287.51H156.6L103.95 199.69L156.6 111.87H204.65L151.99 199.69L204.65 287.51ZM305.11 287.51L261.68 218.78V287.51H222.06V111.87H281.72C318.95 111.87 341.86 130.48 341.86 166.52C341.86 190.62 327.3 208.76 302.48 214.97L352.84 287.52H305.11V287.51Z" fill="#0E1C2D"/>
</svg>
