<svg width="493" height="146" viewBox="0 0 493 146" fill="none" xmlns="http://www.w3.org/2000/svg">
<path d="M245.48 45.4229C245.48 15.4778 226.421 0 195.48 0H145.884V145.986H178.818V88.8532L214.914 145.986H254.59L212.734 85.6768C233.366 80.5223 245.465 65.4488 245.465 45.4084L245.48 45.4229ZM193.892 62.4889H178.818V28.3712H193.892C204.995 28.3712 211.94 34.9118 211.94 45.4373C211.94 55.9628 204.995 62.5034 193.892 62.5034V62.4889Z" fill="#0E1C2D"/>
<path d="M307.362 0L258.171 145.986H292.087L298.829 123.967H348.02L354.763 145.986H389.083L339.487 0H307.348H307.362ZM307.362 95.8125L323.23 44.0368L339.3 95.8125H307.362Z" fill="#0E1C2D"/>
<path d="M457.693 0L431.704 53.7538L405.513 0H368.421L415.042 89.0698V145.986H447.961V89.0698L492.2 0H457.693Z" fill="#0E1C2D"/>
<path d="M91.481 0L47.7185 73L91.481 146H131.417L87.6548 73L131.417 0H91.481Z" fill="#0E1C2D"/>
<path d="M0 146H39.9363L49.8265 129.497L29.8584 96.1879L0 146Z" fill="#0E1C2D"/>
<path d="M49.8265 16.503L39.9363 0H0L29.8584 49.7977L49.8265 16.503Z" fill="#0E1C2D"/>
</svg>
